<svg width="12" height="12" viewBox="0 0 18 18" fill="none" xmlns="http://www.w3.org/2000/svg">
<path d="M17.8044 7.7769H3.49536L12.0597 0.342379C12.1967 0.222546 12.1135 0 11.9326 0H9.76823C9.67285 0 9.58237 0.0342378 9.51145 0.0953769L0.269656 8.11438C0.185012 8.18775 0.117128 8.27846 0.0706029 8.38036C0.0240783 8.48226 0 8.59297 0 8.70499C0 8.81701 0.0240783 8.92771 0.0706029 9.02961C0.117128 9.13151 0.185012 9.22222 0.269656 9.29559L9.56525 17.3635C9.60193 17.3953 9.64595 17.4124 9.69242 17.4124H11.9301C12.1111 17.4124 12.1942 17.1874 12.0573 17.07L3.49536 9.63552H17.8044C17.912 9.63552 18 9.54748 18 9.43988V7.97254C18 7.86494 17.912 7.7769 17.8044 7.7769Z" fill="white"/>
</svg>
