<svg width="12" height="12" viewBox="0 0 18 18" fill="none" xmlns="http://www.w3.org/2000/svg">
<path d="M17.7303 8.11439L8.491 0.0953769C8.42008 0.0342378 8.3296 0 8.23422 0H6.06989C5.88892 0 5.80577 0.224992 5.94272 0.342379L14.5071 7.7769H0.195645C0.0880404 7.7769 0 7.86494 0 7.97254V9.43988C0 9.54749 0.0880404 9.63553 0.195645 9.63553H14.5046L5.94028 17.07C5.80333 17.1899 5.88648 17.4124 6.06745 17.4124H8.30514C8.35161 17.4124 8.39807 17.3953 8.43231 17.3635L17.7303 9.29804C17.815 9.22442 17.8829 9.13349 17.9294 9.03139C17.9759 8.9293 18 8.81841 18 8.70621C18 8.59402 17.9759 8.48313 17.9294 8.38103C17.8829 8.27894 17.815 8.18801 17.7303 8.11439V8.11439Z" fill="white"/>
</svg>
